HIERARCHY
ROOT Hips
{
	OFFSET 0.00000 0.00000 0.00000
	CHANNELS 6 Xposition Yposition Zposition Zrotation Yrotation Xrotation 
	JOINT LHipJoint
	{
		OFFSET 0 0 0
		CHANNELS 3 Zrotation Yrotation Xrotation
		JOINT LeftHip
		{
			OFFSET 1.28858 -1.83292 1.03970
			CHANNELS 3 Zrotation Yrotation Xrotation
			JOINT LeftKnee
			{
				OFFSET 2.47846 -6.80952 0.00000
				CHANNELS 3 Zrotation Yrotation Xrotation
				JOINT LeftAnkle
				{
					OFFSET 2.75274 -7.56311 0.00000
					CHANNELS 3 Zrotation Yrotation Xrotation
					JOINT LeftToe
					{
						OFFSET 0.12848 -0.35301 1.68223
						CHANNELS 3 Zrotation Yrotation Xrotation
						End Site
						{
							OFFSET 0.00000 -0.00000 0.87311
						}
					}
				}
			}
		}
	}
	JOINT RHipJoint
	{
		OFFSET 0 0 0
		CHANNELS 3 Zrotation Yrotation Xrotation
		JOINT RightHip
		{
			OFFSET -1.31183 -1.83292 1.03970
			CHANNELS 3 Zrotation Yrotation Xrotation
			JOINT RightKnee
			{
				OFFSET -2.44740 -6.72417 0.00000
				CHANNELS 3 Zrotation Yrotation Xrotation
				JOINT RightAnkle
				{
					OFFSET -2.67343 -7.34519 0.00000
					CHANNELS 3 Zrotation Yrotation Xrotation
					JOINT RightToe
					{
						OFFSET -0.16914 -0.46471 1.77626
						CHANNELS 3 Zrotation Yrotation Xrotation
						End Site
						{
							OFFSET -0.00000 -0.00000 0.92777
						}
					}
				}
			}
		}
	}
	JOINT lowerback
	{
		OFFSET 0 0 0
		CHANNELS 3 Zrotation Yrotation Xrotation
		JOINT Chest
		{
			OFFSET 0.01249 2.14252 0.03842
			CHANNELS 3 Zrotation Yrotation Xrotation
			JOINT Chest2
			{
				OFFSET -0.02957 2.14199 -0.03751
				CHANNELS 3 Zrotation Yrotation Xrotation
				JOINT lowerneck
				{
					OFFSET 0 0 0
					CHANNELS 3 Zrotation Yrotation Xrotation
					JOINT Neck
					{
						OFFSET -0.01678 1.65709 -0.05476
						CHANNELS 3 Zrotation Yrotation Xrotation
						JOINT Head
						{
							OFFSET 0.07912 1.58331 -0.11843
							CHANNELS 3 Zrotation Yrotation Xrotation
							End Site
							{
								OFFSET 0.03298 1.73940 -0.04271
							}
						}
					}
				}
				JOINT LeftCollar
				{
					OFFSET 0 0 0
					CHANNELS 3 Zrotation Yrotation Xrotation
					JOINT LeftShoulder
					{
						OFFSET 3.39556 1.16496 0.08673
CHANNELS 3 Zrotation Xrotation Yrotation
						JOINT LeftElbow
						{
OFFSET 0 -5.239100 -0.000000
CHANNELS 3 Zrotation Xrotation Yrotation
							JOINT LeftWrist
							{
OFFSET 0 -3.314670 0.000000
CHANNELS 3 Zrotation Xrotation Yrotation
								JOINT lhand
								{
									OFFSET 0 0 0
CHANNELS 3 Zrotation Xrotation Yrotation
									JOINT LFingers
									{
OFFSET 0 -0.965900 0.000000
CHANNELS 3 Zrotation Xrotation Yrotation
										End Site
										{
OFFSET 0 -0.778730 0.000000
										}
									}
								}
								JOINT LThumb
								{
OFFSET 0 0.000000 0.000000
CHANNELS 3 Zrotation Xrotation Yrotation
									End Site
									{
OFFSET 0 -0.790620 0.790620
									}
								}
							}
						}
					}
				}
				JOINT RightCollar
				{
					OFFSET 0 0 0
					CHANNELS 3 Zrotation Yrotation Xrotation
					JOINT RightShoulder
					{
						OFFSET -3.27193 1.31331 0.33940
CHANNELS 3 Zrotation Xrotation Yrotation
						JOINT RightElbow
						{
OFFSET 0 -5.302520 0.000000
CHANNELS 3 Zrotation Xrotation Yrotation
							JOINT RightWrist
							{
OFFSET 0 -3.678750 0.000000
CHANNELS 3 Zrotation Xrotation Yrotation
								JOINT rhand
								{
									OFFSET 0 0 0
CHANNELS 3 Zrotation Xrotation Yrotation
									JOINT RFingers
									{
OFFSET 0 -0.594810 0.000000
CHANNELS 3 Zrotation Xrotation Yrotation
										End Site
										{
OFFSET 0 -0.479550 0.000000
										}
									}
								}
								JOINT RThumb
								{
OFFSET 0 0.000000 0.000000
CHANNELS 3 Zrotation Xrotation Yrotation
									End Site
									{
OFFSET 0 -0.486870 0.486870
									}
								}
							}
						}
					}
				}
			}
		}
	}
}
MOTION
Frames: 8
Frame Time: 0.008333333333333333
7.793400 16.159600 42.334800 -173.053000 19.477200 -152.325000 0.000000 0.000000 0.000000 -4.983100 -4.373700 -73.552200 4.234000 12.465500 37.399200 -0.001000 -1.871400 -1.214800 8.058600 16.162200 52.773400 0.000000 0.000000 0.000000 27.144700 11.804000 -27.115300 -5.625700 -14.055500 43.460400 11.450900 -52.261000 -3.618000 -12.553900 18.615100 -67.734200 -6.419100 3.078400 18.616300 -1.349000 4.960300 11.220000 1.349300 2.948000 1.416900 -8.711000 -8.419000 7.586800 -2.350500 -11.871500 -5.836000 1.216100 -5.319100 -2.807000 0.000000 -0.000000 0.000000 133.071000 -36.655500 55.011500 18.583200 -28.897500 4.827800 26.254300 -60.767200 -0.420200 0.000000 0.000000 0.000000 -7.125000 0.000000 0.000000 -0.246800 30.448300 -0.087700 0.000000 -0.000000 0.000000 -182.269900 -47.639700 -142.787800 -8.484100 -14.334500 -1.068800 -15.112100 25.421800 37.240600 0.000000 0.000000 0.000000 7.125000 0.000000 -0.000000 25.564200 66.511300 -13.632800
7.820564 16.115642 42.045292 -172.616407 18.694830 -151.040922 0.000000 0.000000 0.000000 -4.450015 -4.720105 -75.489195 4.837729 13.124393 39.967626 -0.006678 0.068255 -0.119852 7.126545 15.311487 49.123952 0.000000 0.000000 0.000000 27.558821 11.850827 -26.620286 -5.417056 -13.830241 42.578250 10.870868 -50.404510 -8.623097 -11.708954 18.208092 -64.995590 -5.972855 2.345217 19.231893 -1.697736 4.063447 11.259595 0.868361 2.550524 1.229084 -8.681177 -8.627256 7.756148 -2.199261 -12.171676 -6.060871 1.287312 -5.459850 -2.896859 0.000000 0.000000 0.000000 132.341493 -34.908980 51.941097 19.891783 -30.436452 5.511915 29.115939 -67.760422 1.849365 0.000000 0.000000 0.000000 -7.125000 0.000000 0.000000 1.780382 27.678163 1.061486 0.000000 0.000000 0.000000 -183.282102 -47.012363 -145.627595 -8.294043 -14.027242 -1.023408 -14.747317 26.596656 36.599906 0.000000 0.000000 0.000000 7.125000 0.000000 0.000000 25.223622 65.842784 -13.066694
7.847728 16.071684 41.755784 -172.179815 17.912459 -149.756843 0.000000 0.000000 0.000000 -3.916929 -5.066511 -77.426190 5.441458 13.783287 42.536052 -0.012356 2.007910 0.975096 6.194490 14.460774 45.474503 0.000000 0.000000 0.000000 27.972941 11.897654 -26.125272 -5.208412 -13.604982 41.696099 10.290837 -48.548020 -13.628194 -10.864009 17.801083 -62.256979 -5.526610 1.612034 19.847485 -2.046472 3.166594 11.299190 0.387422 2.153049 1.041269 -8.651353 -8.835511 7.925495 -2.048023 -12.471852 -6.285741 1.358523 -5.600599 -2.986717 0.000000 0.000000 0.000000 131.611986 -33.162460 48.870694 21.200365 -31.975404 6.196029 31.977578 -74.753644 4.118929 0.000000 0.000000 0.000000 -7.125000 0.000000 0.000000 3.807565 24.908026 2.210672 0.000000 0.000000 0.000000 -184.294303 -46.385027 -148.467389 -8.103986 -13.719983 -0.978015 -14.382533 27.771511 35.959211 0.000000 0.000000 0.000000 7.125000 0.000000 0.000000 24.883044 65.174269 -12.500588
7.874891 16.027726 41.466276 -171.743222 17.130089 -148.472765 0.000000 0.000000 0.000000 -3.383844 -5.412916 -79.363185 6.045187 14.442180 45.104478 -0.018033 3.947564 2.070044 5.262435 13.610060 41.825055 0.000000 0.000000 0.000000 28.387062 11.944481 -25.630257 -4.999768 -13.379723 40.813949 9.710805 -46.691530 -18.633291 -10.019063 17.394075 -59.518369 -5.080365 0.878852 20.463078 -2.395209 2.269742 11.338785 -0.093518 1.755573 0.853453 -8.621530 -9.043767 8.094843 -1.896784 -12.772028 -6.510612 1.429735 -5.741349 -3.076576 0.000000 0.000000 0.000000 130.882478 -31.415940 45.800291 22.508948 -33.514355 6.880144 34.839218 -81.746867 6.388494 0.000000 0.000000 0.000000 -7.125000 0.000000 0.000000 5.834747 22.137889 3.359858 0.000000 0.000000 0.000000 -185.306505 -45.757690 -151.307184 -7.913930 -13.412725 -0.932623 -14.017750 28.946367 35.318517 0.000000 0.000000 0.000000 7.125000 0.000000 0.000000 24.542466 64.505753 -11.934481
7.898871 15.996796 41.166534 -171.320302 16.554060 -147.347290 0.000000 0.000000 0.000000 -2.637756 -5.652791 -80.828489 6.601667 14.958095 47.300125 -0.025000 2.933955 1.982042 4.860591 13.222601 40.211836 0.000000 0.000000 0.000000 28.723794 11.413574 -24.748499 -4.633398 -12.920190 39.132507 10.196333 -47.292489 -18.886840 -10.359391 17.549448 -60.611655 -5.206190 0.717738 21.169243 -2.433260 1.968437 11.210928 -0.038249 1.612079 0.384857 -8.611532 -9.225673 8.183092 -1.732010 -13.024447 -6.700363 1.501141 -5.860710 -3.138034 0.000000 0.000000 0.000000 131.176536 -31.688227 46.386734 22.681713 -33.732926 6.963320 35.315639 -82.102224 6.796411 0.000000 0.000000 0.000000 -7.125000 0.000000 0.000000 6.202503 21.677008 3.508997 0.000000 0.000000 0.000000 -185.319577 -45.840244 -152.278182 -7.898611 -13.388220 -0.928698 -13.679198 29.482430 35.233758 0.000000 0.000000 0.000000 7.125000 0.000000 0.000000 24.807592 64.337388 -11.973201
7.921164 15.972770 40.861367 -170.904628 16.087375 -146.305863 0.000000 0.000000 0.000000 -1.778795 -5.836214 -82.043836 7.133109 15.398244 49.298231 -0.032650 0.355369 1.267178 4.739714 13.080626 39.677645 0.000000 0.000000 0.000000 29.019518 10.576517 -23.661798 -4.183448 -12.336513 37.027509 11.246516 -49.195687 -16.622475 -11.327814 18.002835 -63.735519 -5.635162 0.859773 21.923404 -2.306675 1.982721 10.994335 0.301163 1.603174 -0.232528 -8.612040 -9.393616 8.228365 -1.560062 -13.251559 -6.871504 1.572652 -5.968738 -3.184443 0.000000 0.000000 0.000000 132.012995 -33.030308 48.910993 22.252591 -33.251807 6.728050 34.528099 -78.940080 6.217813 0.000000 0.000000 0.000000 -7.125000 0.000000 0.000000 5.690903 22.439834 3.128196 0.000000 0.000000 0.000000 -184.803197 -46.298980 -152.258877 -7.975889 -13.513549 -0.946747 -13.354548 29.679987 35.443597 0.000000 0.000000 0.000000 7.125000 0.000000 0.000000 25.393690 64.434060 -12.332426
7.943457 15.948744 40.556200 -170.488953 15.620690 -145.264436 0.000000 0.000000 0.000000 -0.919834 -6.019636 -83.259183 7.664550 15.838392 51.296337 -0.040301 -2.223217 0.552313 4.618836 12.938651 39.143454 0.000000 0.000000 0.000000 29.315241 9.739460 -22.575098 -3.733497 -11.752835 34.922511 12.296699 -51.098884 -14.358110 -12.296237 18.456222 -66.859383 -6.064135 1.001807 22.677565 -2.180090 1.997005 10.777742 0.640576 1.594269 -0.849914 -8.612548 -9.561559 8.273638 -1.388115 -13.478671 -7.042644 1.644162 -6.076765 -3.230851 0.000000 0.000000 0.000000 132.849454 -34.372390 51.435252 21.823469 -32.770689 6.492780 33.740559 -75.777936 5.639216 0.000000 0.000000 0.000000 -7.125000 0.000000 0.000000 5.179304 23.202661 2.747395 0.000000 0.000000 0.000000 -184.286816 -46.757716 -152.239573 -8.053167 -13.638879 -0.964796 -13.029897 29.877545 35.653436 0.000000 0.000000 0.000000 7.125000 0.000000 0.000000 25.979788 64.530732 -12.691651
7.963831 15.925801 40.245212 -170.007720 15.231125 -144.354678 0.000000 0.000000 0.000000 -0.092992 -6.102718 -84.172490 8.115760 16.200586 52.973644 -0.058749 -4.369387 0.124468 4.889689 13.167481 40.169675 0.000000 0.000000 0.000000 29.546764 8.459980 -21.389517 -3.289020 -11.115912 32.707265 12.285584 -50.907288 -13.233889 -11.782093 16.900107 -62.282099 -6.460401 1.161141 23.537704 -2.082612 2.051102 10.635321 0.917331 1.615820 -1.433794 -8.783887 -9.723755 7.918623 -1.167539 -13.646523 -7.046379 1.719419 -6.163022 -3.133957 0.000000 0.000000 0.000000 133.778476 -35.402376 53.396132 21.414061 -32.306153 6.270833 33.217101 -73.456640 5.291334 0.000000 0.000000 0.000000 -7.125000 0.000000 0.000000 4.836322 23.666606 2.496886 0.000000 0.000000 0.000000 -183.802701 -47.097353 -152.414449 -8.095792 -13.708034 -0.974729 -12.818727 30.154673 35.707632 0.000000 0.000000 0.000000 7.125000 0.000000 0.000000 26.270924 64.521159 -12.836000
